<svg enable-background="new 0 0 24 24" height="512" viewBox="0 0 24 24" width="512" xmlns="http://www.w3.org/2000/svg"><g id="Color"><g><path d="m1.75 11h7.5c.96 0 1.75-.79 1.75-1.75v-7.5c0-.96-.79-1.75-1.75-1.75h-7.5c-.96 0-1.75.79-1.75 1.75v7.5c0 .96.79 1.75 1.75 1.75z" fill="#eceff1"/></g><g><path d="m1.75 24h7.5c.96 0 1.75-.79 1.75-1.75v-7.5c0-.96-.79-1.75-1.75-1.75h-7.5c-.96 0-1.75.79-1.75 1.75v7.5c0 .96.79 1.75 1.75 1.75z" fill="#eceff1"/></g></g><g id="regular"><g><path d="m5 7c-1.103 0-2-.897-2-2s.897-2 2-2 2 .897 2 2-.897 2-2 2zm0-2.5c-.276 0-.5.224-.5.5s.224.5.5.5.5-.224.5-.5-.224-.5-.5-.5z"/></g><g><path d="m7.25 8c-.192 0-.384-.073-.53-.22l-1.05-1.05c-.293-.293-.293-.768 0-1.061s.768-.293 1.061 0l1.05 1.05c.293.293.293.768 0 1.061-.147.147-.339.22-.531.22z"/></g><g><path d="m23.25 3.5h-9.5c-.414 0-.75-.336-.75-.75s.336-.75.75-.75h9.5c.414 0 .75.336.75.75s-.336.75-.75.75z"/></g><g><path d="m23.25 6.5h-9.5c-.414 0-.75-.336-.75-.75s.336-.75.75-.75h9.5c.414 0 .75.336.75.75s-.336.75-.75.75z"/></g><g><path d="m23.25 9.5h-9.5c-.414 0-.75-.336-.75-.75s.336-.75.75-.75h9.5c.414 0 .75.336.75.75s-.336.75-.75.75z"/></g><g><path d="m23.25 16.5h-9.5c-.414 0-.75-.336-.75-.75s.336-.75.75-.75h9.5c.414 0 .75.336.75.75s-.336.75-.75.75z"/></g><g><path d="m23.25 19.5h-9.5c-.414 0-.75-.336-.75-.75s.336-.75.75-.75h9.5c.414 0 .75.336.75.75s-.336.75-.75.75z"/></g><g><path d="m23.25 22.5h-9.5c-.414 0-.75-.336-.75-.75s.336-.75.75-.75h9.5c.414 0 .75.336.75.75s-.336.75-.75.75z"/></g><g><path d="m9.25 11h-7.5c-.965 0-1.75-.785-1.75-1.75v-7.5c0-.965.785-1.75 1.75-1.75h7.5c.965 0 1.75.785 1.75 1.75v7.5c0 .965-.785 1.75-1.75 1.75zm-7.5-9.5c-.138 0-.25.112-.25.25v7.5c0 .138.112.25.25.25h7.5c.138 0 .25-.112.25-.25v-7.5c0-.138-.112-.25-.25-.25z"/></g><g><path d="m9.25 24h-7.5c-.965 0-1.75-.785-1.75-1.75v-7.5c0-.965.785-1.75 1.75-1.75h7.5c.965 0 1.75.785 1.75 1.75v7.5c0 .965-.785 1.75-1.75 1.75zm-7.5-9.5c-.138 0-.25.112-.25.25v7.5c0 .138.112.25.25.25h7.5c.138 0 .25-.112.25-.25v-7.5c0-.138-.112-.25-.25-.25z"/></g><g><path d="m5 20c-1.103 0-2-.897-2-2s.897-2 2-2 2 .897 2 2-.897 2-2 2zm0-2.5c-.276 0-.5.224-.5.5s.224.5.5.5.5-.224.5-.5-.224-.5-.5-.5z"/></g><g><path d="m7.25 21c-.192 0-.384-.073-.53-.22l-1.05-1.05c-.293-.293-.293-.768 0-1.061s.768-.293 1.061 0l1.05 1.05c.293.293.293.768 0 1.061-.147.147-.339.22-.531.22z"/></g></g></svg>