<?xml version="1.0" ?><!DOCTYPE svg  PUBLIC '-//W3C//DTD SVG 1.1//EN'  'http://www.w3.org/Graphics/SVG/1.1/DTD/svg11.dtd'><svg enable-background="new 0 0 26 26" id="Слой_1" version="1.1" viewBox="0 0 26 26" xml:space="preserve" xmlns="http://www.w3.org/2000/svg" xmlns:xlink="http://www.w3.org/1999/xlink"><path d="M24.9726563,16.1252441c-0.0100098-0.0529175-0.0116577-0.1088257-0.0321655-0.1571655  c-0.000061-0.000061,0-0.0002441-0.000061-0.0003052L20.3613281,5.1728516  c-0.0048218-0.0114746-0.0148315-0.0184937-0.0201416-0.0296021c-0.0200195-0.041626-0.0479126-0.0755005-0.0748901-0.1122437  c-0.0223999-0.0308838-0.0377197-0.0655518-0.0648804-0.0928955c-0.0112915-0.0114136-0.024231-0.0194702-0.0361938-0.0300293  c-0.0318604-0.0282593-0.0692749-0.0463257-0.1054688-0.0688477c-0.019165-0.0119019-0.036499-0.0267944-0.0566406-0.0369263  c-0.0145874-0.0073242-0.0239868-0.0204468-0.0392456-0.0269165c-0.0009155-0.0004272-0.0019531-0.0002441-0.0028687-0.0006104  c-0.0133667-0.0056152-0.0275269-0.006897-0.0411987-0.0117798c-0.0380859-0.0135498-0.0786743-0.0158691-0.1190796-0.0231323  C19.7449341,4.7298584,19.690918,4.7192383,19.6333618,4.72229c-0.0116577,0.0005493-0.0220337-0.0046387-0.0337524-0.00354  l-4.8024902,0.4589844C14.473999,4.5068359,13.7932739,4.0390625,13,4.0390625  c-0.9274292,0-1.7019653,0.6375732-1.9273682,1.4949341l-4.8148193,0.460144  C6.222229,5.9976196,6.1932983,6.0159302,6.1594849,6.0240479C6.1204224,6.0333252,6.0800171,6.0349121,6.0430298,6.0502319  C6.0391846,6.0518188,6.0350952,6.0510864,6.03125,6.0527344C6.0209961,6.0571899,6.0148315,6.0662842,6.0048218,6.071167  C5.9639282,6.0910645,5.9307251,6.1187744,5.8945313,6.1452637c-0.0316772,0.0229492-0.065918,0.039978-0.093811,0.0679321  C5.7901001,6.223877,5.7815552,6.2352905,5.7716064,6.246521c-0.0307617,0.034668-0.050293,0.0754395-0.0742188,0.1152344  c-0.017395,0.0287476-0.0430298,0.0499268-0.0567627,0.081604L1.0615234,17.0195313  c-0.0004272,0.0010376-0.0002441,0.0021362-0.0006714,0.0031738c-0.0165405,0.0385742-0.0166626,0.0834961-0.0265503,0.125  c-0.0131836,0.0560303-0.0336914,0.1113892-0.0338135,0.1674194C1.0004883,17.315918,1,17.3165894,1,17.3173828  c0,2.9404297,2.390625,5.3330078,5.3291016,5.3330078c2.9389648,0,5.3295898-2.3925781,5.3295898-5.3330078  c0-0.0007935-0.0004883-0.0014648-0.0004883-0.0022583c-0.0001221-0.0560303-0.0206299-0.1113892-0.0338135-0.1674194  c-0.0098877-0.0415039-0.0100098-0.0864258-0.0265503-0.125c-0.0004272-0.0010376-0.0002441-0.0021362-0.0006714-0.0031738  L7.4275513,7.3901367l3.8419189-0.3671875C11.6140747,7.6264648,12.2564697,8.0390625,13,8.0390625  c0.8786011,0,1.618042-0.5731201,1.8860474-1.3620605l3.602356-0.3442993l-4.0875244,9.6350708  c-0.000061,0.000061,0,0.0002441-0.000061,0.0003052c-0.0205078,0.0483398-0.0221558,0.104248-0.0321655,0.1571655  c-0.0084229,0.0453491-0.0272827,0.0901489-0.0272827,0.1353149c0,0.000061-0.000061,0.0001221-0.000061,0.0001831  c0,2.9404297,2.390625,5.3320313,5.3295898,5.3320313C22.609375,21.5927734,25,19.2011719,25,16.2607422  c0-0.000061-0.000061-0.0001221-0.000061-0.0001831C24.999939,16.2153931,24.9810791,16.1705933,24.9726563,16.1252441z   M23.1171265,15.5107422h-6.8929443l3.4466553-8.1243896L23.1171265,15.5107422z M6.3291626,8.6291504l3.4373169,7.9382324  H2.8921509L6.3291626,8.6291504z M6.3291016,21.1503906c-1.8547363,0-3.4036865-1.3278198-3.7532959-3.0830078h7.5070801  C9.7332764,19.8225708,8.1842651,21.1503906,6.3291016,21.1503906z M13,6.5390625c-0.2758789,0-0.5-0.2246094-0.5-0.5  s0.2241211-0.5,0.5-0.5s0.5,0.2246094,0.5,0.5S13.2758789,6.5390625,13,6.5390625z M19.6708984,20.0927734  c-1.8551636,0-3.4041748-1.3270264-3.7537842-3.0820313h7.5070801  C23.074585,18.7657471,21.5256348,20.0927734,19.6708984,20.0927734z" fill="#1D1D1B"/></svg>